<svg height="496pt" viewBox="-48 0 496 496" width="496pt" xmlns="http://www.w3.org/2000/svg"><path d="m64 353.777344-13.304688 1.480468c-24.304687 2.703126-42.695312 23.246094-42.695312 47.703126v85.039062h384v-85.039062c0-24.457032-18.390625-45.007813-42.695312-47.703126l-13.304688-1.480468" fill="#b8cbd9"/><path d="m343.207031 354.574219-7.207031-.796875h-272l-13.304688 1.480468c-24.304687 2.703126-42.695312 23.246094-42.695312 47.703126v85.039062h239.441406c53.664063-29.894531 90.246094-78.128906 95.765625-133.425781zm0 0" fill="#e8eff4"/><path d="m224 488-16-64h-16l-16 64" fill="#555c47"/><path d="m152 344 48 48 48-48-8-40h-80zm0 0" fill="#db9b7c"/><path d="m176 400 24-24 24 24-24 32z" fill="#857970"/><path d="m264 376 72 8v-32l-48-8" fill="#f0d365"/><path d="m136 376-72 8v-32l48-8" fill="#f0d365"/><g fill="#b8cbd9"><path d="m264 328-56 56 32 32 48-72zm0 0"/><path d="m136 328 56 56-32 32-48-72zm0 0"/><path d="m64 96-11.3125-11.3125c-3-3-4.6875-7.070312-4.6875-11.3125v-6.824219c0-6.398437 3.816406-12.183593 9.695312-14.703125l66.082032-28.320312c23.902344-10.246094 49.628906-15.527344 75.628906-15.527344h1.1875c26 0 51.734375 5.28125 75.628906 15.527344l66.082032 28.320312c5.878906 2.519532 9.695312 8.304688 9.695312 14.703125v6.824219c0 4.242188-1.6875 8.3125-4.6875 11.3125l-11.3125 11.3125"/></g><path d="m276.222656 23.519531c-23.902344-10.238281-49.628906-15.519531-75.628906-15.519531h-1.1875c-26 0-51.734375 5.28125-75.628906 15.519531l-66.082032 28.320313c-5.878906 2.527344-9.695312 8.3125-9.695312 14.710937v6.824219c0 4.242188 1.6875 8.3125 4.6875 11.3125l11.3125 11.3125h129.304688c51.917968-11.910156 90.222656-36.078125 100.128906-65.097656zm0 0" fill="#e8eff4"/><path d="m96 168-32-24v-48h272v48l-32 24" fill="#857970"/><path d="m96 96v112c0 57.441406 46.558594 104 104 104s104-46.558594 104-104v-112" fill="#db9b7c"/><path d="m188 311.257812c51.777344-5.960937 92-49.882812 92-103.257812v-112h-184v112c0 53.375 40.222656 97.296875 92 103.257812zm0 0" fill="#efbe9a"/><path d="m96 136 12.230469 5.238281c28.882812 12.378907 59.96875 18.761719 91.386719 18.761719h.757812c31.417969 0 62.511719-6.382812 91.394531-18.761719l12.230469-5.238281v-8h-208zm0 0" fill="#b8cbd9"/><path d="m96 96h208v32h-208zm0 0" fill="#8892a0"/><path d="m96 168h-8c-13.257812 0-24 10.742188-24 24 0 22.089844 17.910156 40 40 40" fill="#db9b7c"/><path d="m304 168h8c13.257812 0 24 10.742188 24 24 0 22.089844-17.910156 40-40 40" fill="#efbe9a"/><path d="m200 320c-61.761719 0-112-50.238281-112-112v-112h16v112c0 52.9375 43.0625 96 96 96s96-43.0625 96-96v-112h16v112c0 61.761719-50.238281 112-112 112zm0 0"/><path d="m232.15625 305.574219 15.6875-3.136719 8 40-15.6875 3.140625zm0 0"/><path d="m144.136719 342.441406 8.007812-40 15.6875 3.144532-8.007812 39.996093zm0 0"/><path d="m152 208c-8.824219 0-16-7.175781-16-16s7.175781-16 16-16 16 7.175781 16 16-7.175781 16-16 16zm0 0"/><path d="m248 208c-8.824219 0-16-7.175781-16-16s7.175781-16 16-16 16 7.175781 16 16-7.175781 16-16 16zm0 0"/><path d="m200 288c-26.472656 0-48-21.527344-48-48h16c0 17.648438 14.351562 32 32 32s32-14.351562 32-32h16c0 26.472656-21.527344 48-48 48zm0 0"/><path d="m104 240c-26.472656 0-48-21.527344-48-48 0-17.648438 14.351562-32 32-32h8v16h-8c-8.824219 0-16 7.175781-16 16 0 17.648438 14.351562 32 32 32zm0 0"/><path d="m296 240v-16c17.648438 0 32-14.351562 32-32 0-8.824219-7.175781-16-16-16h-8v-16h8c17.648438 0 32 14.351562 32 32 0 26.472656-21.527344 48-48 48zm0 0"/><path d="m341.65625 101.65625-11.3125-11.3125 11.3125-11.3125c1.511719-1.511719 2.34375-3.527344 2.34375-5.664062v-6.816407c0-3.199219-1.902344-6.085937-4.847656-7.351562l-66.074219-28.320313c-23.046875-9.878906-47.429687-14.878906-72.484375-14.878906h-1.1875c-25.054688 0-49.4375 5-72.484375 14.878906l-66.082031 28.320313c-2.9375 1.265625-4.839844 4.144531-4.839844 7.351562v6.824219c0 2.136719.832031 4.152344 2.34375 5.664062l11.3125 11.3125-11.3125 11.3125-11.3125-11.3125c-4.535156-4.535156-7.03125-10.566406-7.03125-16.984374v-6.816407c0-9.605469 5.710938-18.269531 14.535156-22.054687l66.089844-28.320313c25.039062-10.734375 51.542969-16.175781 78.78125-16.175781h1.1875c27.230469 0 53.742188 5.441406 78.78125 16.167969l66.082031 28.328125c8.832031 3.785156 14.542969 12.449218 14.542969 22.054687v6.824219c0 6.410156-2.496094 12.441406-7.03125 16.976562zm0 0"/><path d="m308.800781 174.398438-9.601562-12.796876 28.800781-21.601562v-36h-256v36l28.800781 21.601562-9.601562 12.796876-32-24c-2.015625-1.511719-3.199219-3.878907-3.199219-6.398438v-48c0-4.414062 3.574219-8 8-8h272c4.425781 0 8 3.585938 8 8v48c0 2.519531-1.183594 4.886719-3.199219 6.398438zm0 0"/><path d="m200.382812 168c-33.453124 0-65.253906-6.527344-95.292968-19.40625l-12.234375-5.242188 6.296875-14.703124 12.230468 5.238281c28.050782 12.015625 57.730469 18.113281 88.234376 18.113281 31.269531 0 60.949218-6.097656 89-18.113281l12.230468-5.238281 6.296875 14.703124-12.234375 5.242188c-30.039062 12.878906-61.839844 19.40625-94.527344 19.40625zm0 0"/><path d="m96 120h208v16h-208zm0 0"/><path d="m240 424c-2.113281 0-4.152344-.832031-5.65625-2.34375l-32-32c-3.128906-3.128906-3.128906-8.183594 0-11.3125l56-56c2.703125-2.703125 6.929688-3.128906 10.097656-1l24 16c3.679688 2.457031 4.671875 7.417969 2.214844 11.097656l-48 72c-1.328125 1.992188-3.488281 3.285156-5.863281 3.519532-.273438.023437-.535157.039062-.792969.039062zm-20.6875-40 19.449219 19.449219 38.148437-57.226563-11.886718-7.917968zm0 0"/><path d="m200 440c-2.511719 0-4.886719-1.183594-6.398438-3.199219l-24-32 12.796876-9.59375 17.601562 23.464844 17.601562-23.464844 12.796876 9.59375-24 32c-1.511719 2.015625-3.886719 3.199219-6.398438 3.199219zm0 0"/><path d="m168.246094 486.058594 15.984375-64 15.515625 3.875-15.984375 64zm0 0"/><path d="m200.210938 425.933594 15.515624-3.878906 15.996094 63.996093-15.511718 3.875zm0 0"/><path d="m336 392c-.296875 0-.585938-.015625-.878906-.046875l-72-8 1.765625-15.90625 63.113281 7.015625v-16.285156l-41.3125-6.882813 2.625-15.78125 48 8c3.855469.640625 6.6875 3.976563 6.6875 7.886719v32c0 2.273438-.96875 4.449219-2.664062 5.960938-1.480469 1.320312-3.375 2.039062-5.335938 2.039062zm0 0"/><path d="m296 344h16v40h-16zm0 0"/><path d="m392 496h-384c-4.425781 0-8-3.574219-8-8v-85.039062c0-28.578126 21.425781-52.503907 49.824219-55.65625l13.296875-1.480469 1.765625 15.902343-13.292969 1.480469c-20.296875 2.257813-35.59375 19.335938-35.59375 39.753907v77.039062h368v-77.039062c0-20.417969-15.296875-37.503907-35.585938-39.753907l-13.292968-1.480469 1.765625-15.902343 13.296875 1.480469c28.390625 3.152343 49.816406 27.078124 49.816406 55.65625v85.039062c0 4.425781-3.574219 8-8 8zm0 0"/><path d="m160 424c-.257812 0-.519531-.015625-.792969-.039062-2.382812-.234376-4.535156-1.527344-5.863281-3.519532l-48-72c-2.457031-3.679687-1.464844-8.640625 2.214844-11.097656l24-16c3.160156-2.136719 7.394531-1.710938 10.097656 1l56 56c3.128906 3.128906 3.128906 8.183594 0 11.3125l-32 32c-1.503906 1.511719-3.542969 2.34375-5.65625 2.34375zm-36.902344-77.785156 38.148438 57.226562 19.441406-19.441406-45.703125-45.703125zm0 0"/><path d="m64 392c-1.960938 0-3.855469-.71875-5.335938-2.039062-1.695312-1.511719-2.664062-3.6875-2.664062-5.960938v-32c0-3.910156 2.832031-7.246094 6.6875-7.886719l48-8 2.625 15.78125-41.3125 6.882813v16.285156l63.121094-7.015625 1.765625 15.90625-72 8c-.300781.03125-.589844.046875-.886719.046875zm0 0"/><path d="m88 344h16v40h-16zm0 0"/><path d="m304 464c-2.046875 0-4.097656-.785156-5.65625-2.34375l-13.65625-13.65625h-28.6875v-16h32c2.128906 0 4.160156.839844 5.65625 2.34375l10.34375 10.34375 10.34375-10.34375c1.496094-1.503906 3.527344-2.34375 5.65625-2.34375h32v16h-28.6875l-13.65625 13.65625c-1.558594 1.558594-3.609375 2.34375-5.65625 2.34375zm0 0"/><path d="m200 72c-2.046875 0-4.097656-.785156-5.65625-2.34375l-13.65625-13.65625h-28.6875v-16h32c2.128906 0 4.160156.839844 5.65625 2.34375l10.34375 10.34375 10.34375-10.34375c1.496094-1.503906 3.527344-2.34375 5.65625-2.34375h32v16h-28.6875l-13.65625 13.65625c-1.558594 1.558594-3.609375 2.34375-5.65625 2.34375zm0 0"/></svg>