<?xml version="1.0" encoding="iso-8859-1"?>
<!-- Generator: Adobe Illustrator 19.0.0, SVG Export Plug-In . SVG Version: 6.00 Build 0)  -->
<svg version="1.1" id="Layer_1" xmlns="http://www.w3.org/2000/svg" xmlns:xlink="http://www.w3.org/1999/xlink" x="0px" y="0px"
	 viewBox="0 0 512 512" style="enable-background:new 0 0 512 512;" xml:space="preserve">
<circle style="fill:#35CCFF;" cx="256" cy="256" r="256"/>
<path style="fill:#00BAFF;" d="M512,256c0-14.677-1.253-29.058-3.625-43.061l-58.418-58.418L56.039,252.257l80.899,80.899
	l-42.956,17.184l161.654,161.654c0.121,0,0.241,0.005,0.364,0.005C397.384,512,512,397.384,512,256z"/>
<path style="fill:#FFFFFF;" d="M478.384,205.238c0,53.301-99.564,120.639-222.384,120.639S33.616,258.539,33.616,205.238
	S133.18,94.47,256,94.47S478.384,151.936,478.384,205.238z"/>
<g>
	<path style="fill:#E0E0E0;" d="M256,94.47c-0.191,0-0.383,0.003-0.574,0.003V325.87c0.191,0,0.383,0.005,0.574,0.005
		c122.82,0,222.384-67.337,222.384-120.637S378.82,94.47,256,94.47z"/>
	<path style="fill:#E0E0E0;" d="M56.039,252.257c10.488,11.367,24.34,22.337,40.867,32.187h318.192
		c16.527-9.85,30.379-20.82,40.865-32.187H56.039z"/>
</g>
<path style="fill:#C0C0C0;" d="M255.426,252.257v32.187h159.67c16.527-9.85,30.379-20.82,40.865-32.187H255.426z"/>
<path style="fill:#4B7689;" d="M254.662,235.773c0.867,0.245,1.807,0.245,2.675,0c19.67-5.534,31.777-16.622,36.871-25.043
	c5.679-9.394,6.47-17.572,6.54-18.473c0.188-2.37-1.579-4.446-3.949-4.636l-7.333-0.593c-2.32-0.197-4.398,1.548-4.636,3.881
	c-0.005,0.055-0.607,5.582-4.461,11.828c-3.756,6.085-9.25,10.88-16.379,14.305V177.35h4.015c2.381,0,4.31-1.929,4.31-4.31v-7.356
	c0-2.381-1.929-4.31-4.31-4.31h-0.36c3.022-3.893,4.106-9.256,2.105-14.431c-1.927-4.982-6.554-8.602-11.855-9.266
	c-8.982-1.122-16.656,5.882-16.656,14.646c0,3.336,1.148,6.506,3.122,9.051H244c-2.381,0-4.31,1.929-4.31,4.31v7.358
	c0,2.381,1.929,4.31,4.31,4.31h4.017v39.691c-7.128-3.425-12.622-8.22-16.379-14.305c-3.851-6.239-4.455-11.757-4.456-11.774
	c-0.205-2.357-2.257-4.106-4.63-3.92l-7.335,0.576c-1.141,0.09-2.198,0.629-2.941,1.498s-1.108,2-1.019,3.139
	c0.072,0.902,0.862,9.08,6.542,18.473C222.885,219.152,234.991,230.24,254.662,235.773z M256,146.291
	c3.327,0,6.034,2.707,6.034,6.034c0,3.327-2.707,6.034-6.034,6.034c-3.327,0-6.034-2.707-6.034-6.034
	C249.966,148.997,252.673,146.291,256,146.291z"/>
<path style="fill:#175D76;" d="M296.8,187.62l-7.333-0.593c-2.32-0.197-4.398,1.548-4.636,3.881
	c-0.005,0.055-0.607,5.582-4.461,11.828c-3.756,6.085-9.25,10.88-16.379,14.305v-39.691h4.015c2.381,0,4.31-1.929,4.31-4.31v-7.354
	c0-2.381-1.929-4.31-4.31-4.31h-0.36c3.022-3.893,4.106-9.256,2.105-14.431c-1.927-4.982-6.554-8.602-11.855-9.266
	c-0.836-0.105-1.657-0.117-2.467-0.086v8.756c0.191-0.019,0.378-0.059,0.574-0.059c3.327,0,6.034,2.707,6.034,6.034
	s-2.707,6.034-6.034,6.034c-0.197,0-0.383-0.04-0.574-0.059v77.576c0.641,0.074,1.291,0.071,1.912-0.105
	c19.67-5.534,31.777-16.622,36.871-25.043c5.679-9.394,6.47-17.572,6.54-18.473C300.937,189.886,299.17,187.811,296.8,187.62z"/>
<path style="fill:#0074A3;" d="M371.805,372.815h-231.61c-32.466,0-58.785-26.319-58.785-58.785v-28.51h349.182v28.51
	C430.59,346.496,404.271,372.815,371.805,372.815z"/>
<path style="fill:#005C83;" d="M255.426,285.52v87.295h116.379c32.466,0,58.785-26.319,58.785-58.785v-28.51H255.426z"/>
<path style="fill:#FFCF35;" d="M81.536,306.004h348.929c0.076-1.217,0.126-2.441,0.126-3.677v-28.51H81.41v28.51
	C81.41,303.563,81.46,304.787,81.536,306.004z"/>
<path style="fill:#FFB344;" d="M255.426,273.817v32.187h175.038c0.076-1.217,0.126-2.441,0.126-3.677v-28.51L255.426,273.817
	L255.426,273.817z"/>
<g>
</g>
<g>
</g>
<g>
</g>
<g>
</g>
<g>
</g>
<g>
</g>
<g>
</g>
<g>
</g>
<g>
</g>
<g>
</g>
<g>
</g>
<g>
</g>
<g>
</g>
<g>
</g>
<g>
</g>
</svg>
