<svg height="496pt" viewBox="0 0 496 496" width="496pt" xmlns="http://www.w3.org/2000/svg"><path d="m216 88v16c0 8.800781-7.199219 16-16 16h-80c-8.800781 0-16-7.199219-16-16v-16c0-8.800781 7.199219-16 16-16h80c8.800781 0 16 7.199219 16 16zm0 0" fill="#969faa"/><path d="m184 120v80h-48v-80zm0 0" fill="#ccd1d9"/><path d="m120 200v160h-32c-17.679688 0-32-14.320312-32-32v-96c0-17.679688 14.320312-32 32-32zm0 0" fill="#838f9b"/><path d="m472 72v288.078125c-8.238281-11.039063-19.199219-19.839844-32-25.359375v-254.71875c0-4.398438-3.601562-8-8-8h-128c-4.398438 0-8 3.601562-8 8v264c-13.359375-10.078125-30-16-48-16-26.160156 0-49.359375 12.558594-64 32h-32v-160h112v-128c0-17.679688 14.320312-32 32-32h144c17.679688 0 32 14.320312 32 32zm0 0" fill="#838f9b"/><path d="m488 16v16c0 4.398438-3.601562 8-8 8h-264c0-8.800781 3.601562-16.800781 9.359375-22.640625 5.839844-5.757813 13.839844-9.359375 22.640625-9.359375h232c4.398438 0 8 3.601562 8 8zm0 0" fill="#fcd770"/><path d="m472 360.078125c10.078125 13.363281 16 29.921875 16 47.921875 0 44.160156-35.839844 80-80 80-38.71875 0-70.960938-27.519531-78.398438-64h33.199219c6.558594 18.640625 24.320313 32 45.199219 32 26.480469 0 48-21.519531 48-48s-21.519531-48-48-48c-20.878906 0-38.640625 13.359375-45.199219 32h-33.199219c7.4375-36.480469 39.679688-64 78.398438-64 11.359375 0 22.238281 2.398438 32 6.71875 12.800781 5.519531 23.761719 14.320312 32 25.359375zm0 0" fill="#838f9b"/><path d="m408 360c26.480469 0 48 21.519531 48 48s-21.519531 48-48 48c-20.878906 0-38.640625-13.359375-45.199219-32h45.199219c4.398438 0 8.398438-1.761719 11.28125-4.71875 2.957031-2.882812 4.71875-6.882812 4.71875-11.28125 0-8.800781-7.199219-16-16-16h-45.199219c6.558594-18.640625 24.320313-32 45.199219-32zm0 0" fill="#ccd1d9"/><path d="m440 232v102.71875c-9.761719-4.320312-20.640625-6.71875-32-6.71875-38.71875 0-70.960938 27.519531-78.398438 64h-3.203124c-4-19.519531-15.039063-36.480469-30.398438-48v-144h80l16-16h48zm0 0" fill="#838f9b"/><path d="m440 80v104h-48l-16 16h-80v-120c0-4.398438 3.601562-8 8-8h128c4.398438 0 8 3.601562 8 8zm0 0" fill="#69d6f4"/><path d="m408 392c8.800781 0 16 7.199219 16 16 0 4.398438-1.761719 8.398438-4.71875 11.28125-2.882812 2.957031-6.882812 4.71875-11.28125 4.71875h-160c-8.800781 0-16-7.199219-16-16 0-4.398438 1.761719-8.398438 4.71875-11.28125 2.882812-2.957031 6.882812-4.71875 11.28125-4.71875zm0 0" fill="#fcd770"/><path d="m326.398438 392h-33.199219c-6.558594-18.640625-24.320313-32-45.199219-32-26.480469 0-48 21.519531-48 48s21.519531 48 48 48c20.878906 0 38.640625-13.359375 45.199219-32h33.199219c-7.4375 36.480469-39.679688 64-78.398438 64-44.160156 0-80-35.839844-80-80 0-5.519531.558594-10.878906 1.601562-16 2.398438-11.839844 7.4375-22.71875 14.398438-32 14.640625-19.441406 37.839844-32 64-32 18 0 34.640625 5.921875 48 16 15.359375 11.519531 26.398438 28.480469 30.398438 48zm0 0" fill="#838f9b"/><path d="m293.199219 392h-45.199219c-4.398438 0-8.398438 1.761719-11.28125 4.71875-2.957031 2.882812-4.71875 6.882812-4.71875 11.28125 0 8.800781 7.199219 16 16 16h45.199219c-6.558594 18.640625-24.320313 32-45.199219 32-26.480469 0-48-21.519531-48-48s21.519531-48 48-48c20.878906 0 38.640625 13.359375 45.199219 32zm0 0" fill="#ccd1d9"/><path d="m152 360h32c-6.960938 9.28125-12 20.160156-14.398438 32h-105.601562c-4.398438 0-8-3.601562-8-8v-16c0-4.398438 3.601562-8 8-8zm0 0" fill="#aab2bd"/><path d="m152 200v160h-32v-160zm0 0" fill="#b4dd7f"/><path d="m144 456v32h-136c0-8.800781 3.601562-16.800781 9.359375-22.640625 5.839844-5.757813 13.839844-9.359375 22.640625-9.359375zm0 0" fill="#969faa"/><path d="m144 392-16 64h-80l48-64zm0 0" fill="#838f9b"/><path d="m56 232v96h-16c-17.679688 0-32-14.320312-32-32v-32c0-17.679688 14.320312-32 32-32zm0 0" fill="#fcd770"/><path d="m496 32v-16c0-8.824219-7.175781-16-16-16h-232c-22.054688 0-40 17.945312-40 40v8h56.207031c-5.078125 6.703125-8.207031 14.960938-8.207031 24v120h-64v-64h8c13.230469 0 24-10.769531 24-24v-16c0-13.230469-10.769531-24-24-24h-80c-13.230469 0-24 10.769531-24 24v16c0 13.230469 10.769531 24 24 24h8v64h-40c-19.3125 0-35.472656 13.769531-39.191406 32h-8.808594c-22.054688 0-40 17.945312-40 40v32c0 22.054688 17.945312 40 40 40h8.808594c1.34375 6.59375 4.449218 12.480469 8.597656 17.457031-5.535156 2.527344-9.40625 8.078125-9.40625 14.542969v16c0 8.824219 7.175781 16 16 16h16l-36 48h-4c-22.054688 0-40 17.945312-40 40v8h152v-48h-13.753906l12-48h10.160156c-.238281 2.640625-.40625 5.296875-.40625 8 0 48.519531 39.480469 88 88 88 34.902344 0 65.945312-20.800781 80-51.503906 14.054688 30.703125 45.097656 51.503906 80 51.503906 48.519531 0 88-39.480469 88-88 0-18.769531-5.953125-36.136719-16-50.441406v-285.558594c0-9.039062-3.128906-17.296875-8.207031-24h8.207031c8.824219 0 16-7.175781 16-16zm-248-16h232v16h-254.632812c3.304687-9.3125 12.199218-16 22.632812-16zm-136 88v-16c0-4.40625 3.59375-8 8-8h80c4.40625 0 8 3.59375 8 8v16c0 4.40625-3.59375 8-8 8h-80c-4.40625 0-8-3.59375-8-8zm32 24h32v64h-32zm-16 224v-144h16v144zm-64-120c0-13.230469 10.769531-24 24-24h24v144h-24c-13.230469 0-24-10.769531-24-24zm-48 64v-32c0-13.230469 10.769531-24 24-24h8v80h-8c-13.230469 0-24-10.769531-24-24zm120 184h-118.632812c3.304687-9.3125 12.199218-16 22.632812-16h96zm-14.246094-32h-57.753906l36-48h33.761719zm-57.753906-64v-16h105.710938c-2.597657 5.070312-4.71875 10.414062-6.304688 16zm184 96c-39.695312 0-72-32.296875-72-72s32.304688-72 72-72c30.726562 0 57.800781 19.695312 67.832031 48h-17.449219c-9.207031-19.304688-28.695312-32-50.382812-32-30.878906 0-56 25.128906-56 56s25.121094 56 56 56c21.679688 0 41.175781-12.695312 50.382812-32h17.449219c-10.03125 28.304688-37.105469 48-67.832031 48zm184-304h-43.3125l-16 16h-68.6875v-112h128zm-128 32h75.3125l16-16h36.6875v32h-32v16h32v83.40625c-7.640625-2.167969-15.671875-3.40625-24-3.40625-34.902344 0-65.945312 20.800781-80 51.503906-5.601562-12.222656-13.839844-22.894531-24-31.289062zm104 176h-31.921875c7.425781-9.871094 19.167969-16 31.921875-16 22.054688 0 40 17.945312 40 40s-17.945312 40-40 40c-12.753906 0-24.496094-6.128906-31.921875-16h31.921875c13.230469 0 24-10.769531 24-24s-10.769531-24-24-24zm0 16c4.40625 0 8 3.585938 8 8s-3.59375 8-8 8h-160c-4.40625 0-8-3.585938-8-8s3.59375-8 8-8zm-160 32h31.921875c-7.425781 9.871094-19.167969 16-31.921875 16-22.054688 0-40-17.945312-40-40s17.945312-40 40-40c12.753906 0 24.496094 6.128906 31.921875 16h-31.921875c-13.230469 0-24 10.769531-24 24s10.769531 24 24 24zm160 48c-30.726562 0-57.800781-19.695312-67.832031-48h17.449219c9.207031 19.304688 28.695312 32 50.382812 32 30.878906 0 56-25.128906 56-56s-25.121094-56-56-56c-21.679688 0-41.175781 12.695312-50.382812 32h-17.449219c10.023437-28.304688 37.097656-48 67.832031-48 39.695312 0 72 32.296875 72 72s-32.304688 72-72 72zm56-408v268.167969c-4.902344-4.054688-10.289062-7.527344-16-10.457031v-249.710938c0-8.824219-7.175781-16-16-16h-128c-8.824219 0-16 7.175781-16 16v249.761719c-12.105469-6.21875-25.710938-9.761719-40-9.761719-27.265625 0-51.671875 12.472656-67.832031 32h-20.167969v-144h112v-136c0-13.230469 10.769531-24 24-24h144c13.230469 0 24 10.769531 24 24zm0 0"/><path d="m176 224h16v16h-16zm0 0"/><path d="m208 224h16v16h-16zm0 0"/><path d="m240 224h16v16h-16zm0 0"/></svg>