<svg
    version="1.1"
    xmlns="http://www.w3.org/2000/svg"

    height="100%"
    width="100%"
    x="0px"
    y="0px"
    viewBox="0 0 2040 480"
    xml:space="preserve"

    class=""
>
    <defs>
        <linearGradient id="sloganGradient274383379">
            <stop offset="0.05" stop-color="#6E6F71"></stop>
            <stop offset="0.95" stop-color="#ECECEC"></stop>
        </linearGradient>
    </defs>
    <defs>
        <linearGradient id="iconGradient274383379">
            <stop offset="0.05" stop-color="#6E6F71"></stop>
            <stop offset="0.95" stop-color="#ECECEC"></stop>
        </linearGradient>
    </defs>
    <defs>
        <linearGradient id="frameGradient274383379">
            <stop offset="0.05" stop-color="#6E6F71"></stop>
            <stop offset="0.95" stop-color="#ECECEC"></stop>
        </linearGradient>
    </defs>
    <defs>
        <linearGradient id="iconFrameGradient274383379">
            <stop offset="0.05" stop-color="#6E6F71"></stop>
            <stop offset="0.95" stop-color="#ECECEC"></stop>
        </linearGradient>
    </defs>
    <rect x="0px" y="0px" width="100%" height="100%" fill="#fafafe"></rect>
    <g
        class="logo-container-box logoContainerBox"
        transform="scale(0.75) translate(106.66665903727215,80.00001525878906)"
    >
        <g
            class="containerBody"
            transform="scale(1.0085137338252226) translate(13.003598342887074,-2.026054523474329)"
        >
            <g class="sampleIconBox" transform="scale(1) translate(0,0)">
                <g
                    class="sampleIcons_1"
                    transform="scale(7.4) translate(5.775996185302716,-18.2)"
                    fill="#2d3649"
                >
                    <g transform="translate(0,-952.36218)">
                        <path
                            style="text-indent:0;text-transform:none;direction:ltr;block-progression:tb;baseline-shift:baseline;color:#000000;enable-background:accumulate;"
                            d="m 38.71786,969.36217 c -0.53556,0.072 -0.97918,0.6073 -0.975,1.1779 l 0,8.2821 -23.78304,0 c -1.74097,0 -2.95982,1.6693 -2.95982,3.4971 l 0,49.54603 c 0,1.8276 1.21885,3.4969 2.95982,3.4969 l 72.04554,0 c 1.74098,0 2.99464,-1.6692 2.99464,-3.4969 l 0,-49.54603 c 0,-1.8278 -1.25366,-3.4971 -2.99464,-3.4971 l -23.74822,0 0,-8.2821 c -5e-5,-0.6167 -0.53086,-1.1778 -1.11428,-1.1779 l -22.425,0 z m 1.25357,2.3558 20.05714,0 0,7.1042 -20.05714,0 0,-7.1042 z m -26.01161,9.46 72.04554,0 c 0.33319,0 0.76607,0.3879 0.76607,1.1413 l 0,20.53973 -10.41161,6.5891 -52.71964,0 -10.41161,-6.5522 0,-20.57663 c 0,-0.7534 0.39807,-1.1413 0.73125,-1.1413 z m 32.38393,18.84673 a 1.1252495,1.1895051 0 1 0 0.31339,2.3558 l 6.68572,0 a 1.1143971,1.1780329 0 1 0 0,-2.3558 l -6.68572,0 a 1.1143971,1.1780329 0 0 0 -0.20893,0 1.1191718,1.1830802 0 0 0 -0.10446,0 z m -33.11518,5.5952 9.50625,6.0001 c 0.16597,0.1119 0.36043,0.176 0.55714,0.1839 l 25.59375,0 0,21.2025 -34.92589,0 c -0.33318,0 -0.73125,-0.3879 -0.73125,-1.1411 l 0,-26.2454 z m 73.54286,0 0,26.2454 c 0,0.7532 -0.43288,1.1411 -0.76607,1.1411 l -34.89107,0 0,-21.2025 25.59375,0 c 0.19671,-0.012 0.39117,-0.072 0.55714,-0.1839 l 9.50625,-6.0001 z"
                            fill-opacity="1"
                            stroke="none"
                            marker="none"
                            visibility="visible"
                            display="inline"
                            overflow="visible"
                        ></path>
                    </g>
                </g>
            </g>
            <g
                class="sampleTexts_1"
                transform="scale(1) translate(0.000006103515630684342,25.989980697631836)"
            >
                <g
                    class="logo--name svgLogoName_1 logoNameBox"
                    transform="scale(5) translate(185.16999998092652,69.86000061035156)"
                    fill="#2d3649"
                >
                    <path
                        d="M22.75-9.58L22.75-9.58L22.75-9.58Q22.75-7.56 22.00-5.80L22.00-5.80L22.00-5.80Q21.24-4.03 19.94-2.74L19.94-2.74L19.94-2.74Q18.65-1.44 16.88-0.68L16.88-0.68L16.88-0.68Q15.12 0.07 13.10 0.07L13.10 0.07L11.88 0.07L11.88 0.07Q9.86 0.07 8.10-0.68L8.10-0.68L8.10-0.68Q6.34-1.44 5.04-2.74L5.04-2.74L5.04-2.74Q3.74-4.03 2.99-5.80L2.99-5.80L2.99-5.80Q2.23-7.56 2.23-9.58L2.23-9.58L2.23-15.55L2.23-15.55Q2.23-16.56 3.24-16.56L3.24-16.56L9.00-16.56L9.00-16.56Q10.01-16.56 10.01-15.55L10.01-15.55L10.01-9.58L10.01-9.58Q10.01-8.78 10.55-8.28L10.55-8.28L10.55-8.28Q11.09-7.78 11.88-7.78L11.88-7.78L13.10-7.78L13.10-7.78Q13.90-7.78 14.44-8.28L14.44-8.28L14.44-8.28Q14.98-8.78 14.98-9.58L14.98-9.58L14.98-17.71L14.98-17.71Q14.98-18.36 14.69-18.94L14.69-18.94L14.69-18.94Q14.40-19.51 13.97-19.94L13.97-19.94L4.25-28.66L4.25-28.66Q2.23-30.46 2.23-33.19L2.23-33.19L2.23-41.90L2.23-41.90Q2.23-43.92 2.99-45.68L2.99-45.68L2.99-45.68Q3.74-47.45 5.04-48.78L5.04-48.78L5.04-48.78Q6.34-50.11 8.10-50.87L8.10-50.87L8.10-50.87Q9.86-51.62 11.88-51.62L11.88-51.62L13.10-51.62L13.10-51.62Q15.12-51.62 16.88-50.87L16.88-50.87L16.88-50.87Q18.65-50.11 19.94-48.78L19.94-48.78L19.94-48.78Q21.24-47.45 22.00-45.68L22.00-45.68L22.00-45.68Q22.75-43.92 22.75-41.90L22.75-41.90L22.75-36.00L22.75-36.00Q22.75-35.64 22.46-35.32L22.46-35.32L22.46-35.32Q22.18-34.99 21.74-34.99L21.74-34.99L15.98-34.99L15.98-34.99Q15.55-34.99 15.26-35.32L15.26-35.32L15.26-35.32Q14.98-35.64 14.98-36.00L14.98-36.00L14.98-41.90L14.98-41.90Q14.98-42.70 14.44-43.24L14.44-43.24L14.44-43.24Q13.90-43.78 13.10-43.78L13.10-43.78L11.88-43.78L11.88-43.78Q11.09-43.78 10.55-43.24L10.55-43.24L10.55-43.24Q10.01-42.70 10.01-41.90L10.01-41.90L10.01-34.42L10.01-34.42Q10.01-33.05 11.09-32.11L11.09-32.11L20.74-23.40L20.74-23.40Q22.75-21.60 22.75-18.86L22.75-18.86L22.75-9.58ZM33.12 0L27.14 0L27.14 0Q26.71 0 26.42-0.36L26.42-0.36L26.42-0.36Q26.14-0.72 26.21-1.15L26.21-1.15L34.49-50.83L34.49-50.83Q34.49-51.19 34.81-51.44L34.81-51.44L34.81-51.44Q35.14-51.70 35.50-51.70L35.50-51.70L38.88-51.70L39.02-51.70L42.41-51.70L42.41-51.70Q43.27-51.70 43.42-50.83L43.42-50.83L51.70-1.15L51.70-1.15Q51.84-0.72 51.52-0.36L51.52-0.36L51.52-0.36Q51.19 0 50.76 0L50.76 0L44.78 0L44.78 0Q43.92 0 43.78-0.94L43.78-0.94L42.70-8.93L35.21-8.93L34.13-0.94L34.13-0.94Q33.84 0 33.12 0L33.12 0ZM38.95-35.35L36.36-16.70L41.54-16.70L38.95-35.35ZM76.46 0.14L71.06 0.14L71.06 0.14Q70.34 0.14 70.13-0.43L70.13-0.43L63.79-18.79L63.79-1.01L63.79-1.01Q63.79 0 62.78 0L62.78 0L57.02 0L57.02 0Q56.59 0 56.27-0.29L56.27-0.29L56.27-0.29Q55.94-0.58 55.94-1.01L55.94-1.01L55.94-50.83L55.94-50.83Q55.94-51.19 56.27-51.52L56.27-51.52L56.27-51.52Q56.59-51.84 57.02-51.84L57.02-51.84L66.67-51.84L66.67-51.84Q68.69-51.84 70.45-51.08L70.45-51.08L70.45-51.08Q72.22-50.33 73.51-49.00L73.51-49.00L73.51-49.00Q74.81-47.66 75.56-45.90L75.56-45.90L75.56-45.90Q76.32-44.14 76.32-42.12L76.32-42.12L76.32-30.67L76.32-30.67Q76.32-27.65 74.66-25.24L74.66-25.24L74.66-25.24Q73.01-22.82 70.42-21.74L70.42-21.74L77.47-1.22L77.47-1.22Q77.69-0.72 77.36-0.29L77.36-0.29L77.36-0.29Q77.04 0.14 76.46 0.14L76.46 0.14ZM63.79-43.99L63.79-28.80L66.67-28.80L66.67-28.80Q67.46-28.80 68.00-29.34L68.00-29.34L68.00-29.34Q68.54-29.88 68.54-30.67L68.54-30.67L68.54-42.12L68.54-42.12Q68.54-42.91 68.00-43.45L68.00-43.45L68.00-43.45Q67.46-43.99 66.67-43.99L66.67-43.99L63.79-43.99ZM81.86-50.76L81.86-50.76L81.86-50.76Q81.86-51.19 82.19-51.44L82.19-51.44L82.19-51.44Q82.51-51.70 82.87-51.70L82.87-51.70L88.78-51.70L88.78-51.70Q89.71-51.70 89.71-50.76L89.71-50.76L89.71-32.98L97.34-51.12L97.34-51.12Q97.56-51.70 98.28-51.70L98.28-51.70L104.26-51.70L104.26-51.70Q104.76-51.70 105.05-51.26L105.05-51.26L105.05-51.26Q105.34-50.83 105.12-50.33L105.12-50.33L95.11-26.35L105.05-1.44L105.05-1.44Q105.26-0.86 104.98-0.47L104.98-0.47L104.98-0.47Q104.69-0.07 104.11-0.07L104.11-0.07L98.28-0.07L98.28-0.07Q97.56-0.07 97.34-0.72L97.34-0.72L90.94-16.56L89.71-13.54L89.71-1.01L89.71-1.01Q89.71 0 88.78 0L88.78 0L82.87 0L82.87 0Q82.51 0 82.19-0.29L82.19-0.29L82.19-0.29Q81.86-0.58 81.86-1.01L81.86-1.01L81.86-50.76ZM116.42 0L110.45 0L110.45 0Q110.02 0 109.73-0.36L109.73-0.36L109.73-0.36Q109.44-0.72 109.51-1.15L109.51-1.15L117.79-50.83L117.79-50.83Q117.79-51.19 118.12-51.44L118.12-51.44L118.12-51.44Q118.44-51.70 118.80-51.70L118.80-51.70L122.18-51.70L122.33-51.70L125.71-51.70L125.71-51.70Q126.58-51.70 126.72-50.83L126.72-50.83L135.00-1.15L135.00-1.15Q135.14-0.72 134.82-0.36L134.82-0.36L134.82-0.36Q134.50 0 134.06 0L134.06 0L128.09 0L128.09 0Q127.22 0 127.08-0.94L127.08-0.94L126.00-8.93L118.51-8.93L117.43-0.94L117.43-0.94Q117.14 0 116.42 0L116.42 0ZM122.26-35.35L119.66-16.70L124.85-16.70L122.26-35.35ZM159.77 0.14L154.37 0.14L154.37 0.14Q153.65 0.14 153.43-0.43L153.43-0.43L147.10-18.79L147.10-1.01L147.10-1.01Q147.10 0 146.09 0L146.09 0L140.33 0L140.33 0Q139.90 0 139.57-0.29L139.57-0.29L139.57-0.29Q139.25-0.58 139.25-1.01L139.25-1.01L139.25-50.83L139.25-50.83Q139.25-51.19 139.57-51.52L139.57-51.52L139.57-51.52Q139.90-51.84 140.33-51.84L140.33-51.84L149.98-51.84L149.98-51.84Q151.99-51.84 153.76-51.08L153.76-51.08L153.76-51.08Q155.52-50.33 156.82-49.00L156.82-49.00L156.82-49.00Q158.11-47.66 158.87-45.90L158.87-45.90L158.87-45.90Q159.62-44.14 159.62-42.12L159.62-42.12L159.62-30.67L159.62-30.67Q159.62-27.65 157.97-25.24L157.97-25.24L157.97-25.24Q156.31-22.82 153.72-21.74L153.72-21.74L160.78-1.22L160.78-1.22Q160.99-0.72 160.67-0.29L160.67-0.29L160.67-0.29Q160.34 0.14 159.77 0.14L159.77 0.14ZM147.10-43.99L147.10-28.80L149.98-28.80L149.98-28.80Q150.77-28.80 151.31-29.34L151.31-29.34L151.31-29.34Q151.85-29.88 151.85-30.67L151.85-30.67L151.85-42.12L151.85-42.12Q151.85-42.91 151.31-43.45L151.31-43.45L151.31-43.45Q150.77-43.99 149.98-43.99L149.98-43.99L147.10-43.99ZM166.18 0.07L166.18 0.07L166.18 0.07Q165.82 0.07 165.49-0.22L165.49-0.22L165.49-0.22Q165.17-0.50 165.17-0.94L165.17-0.94L165.17-50.62L165.17-50.62Q165.17-50.98 165.49-51.30L165.49-51.30L165.49-51.30Q165.82-51.62 166.18-51.62L166.18-51.62L172.01-51.62L172.01-51.62Q172.44-51.62 172.73-51.30L172.73-51.30L172.73-51.30Q173.02-50.98 173.02-50.62L173.02-50.62L173.02-0.94L173.02-0.94Q173.02 0.07 172.01 0.07L172.01 0.07L166.18 0.07ZM212.11 0.14L206.71 0.14L206.71 0.14Q205.99 0.14 205.78-0.43L205.78-0.43L199.44-18.79L199.44-1.01L199.44-1.01Q199.44 0 198.43 0L198.43 0L192.67 0L192.67 0Q192.24 0 191.92-0.29L191.92-0.29L191.92-0.29Q191.59-0.58 191.59-1.01L191.59-1.01L191.59-50.83L191.59-50.83Q191.59-51.19 191.92-51.52L191.92-51.52L191.92-51.52Q192.24-51.84 192.67-51.84L192.67-51.84L202.32-51.84L202.32-51.84Q204.34-51.84 206.10-51.08L206.10-51.08L206.10-51.08Q207.86-50.33 209.16-49.00L209.16-49.00L209.16-49.00Q210.46-47.66 211.21-45.90L211.21-45.90L211.21-45.90Q211.97-44.14 211.97-42.12L211.97-42.12L211.97-30.67L211.97-30.67Q211.97-27.65 210.31-25.24L210.31-25.24L210.31-25.24Q208.66-22.82 206.06-21.74L206.06-21.74L213.12-1.22L213.12-1.22Q213.34-0.72 213.01-0.29L213.01-0.29L213.01-0.29Q212.69 0.14 212.11 0.14L212.11 0.14ZM199.44-43.99L199.44-28.80L202.32-28.80L202.32-28.80Q203.11-28.80 203.65-29.34L203.65-29.34L203.65-29.34Q204.19-29.88 204.19-30.67L204.19-30.67L204.19-42.12L204.19-42.12Q204.19-42.91 203.65-43.45L203.65-43.45L203.65-43.45Q203.11-43.99 202.32-43.99L202.32-43.99L199.44-43.99ZM218.52-51.77L225.29-51.77L236.16-51.77L236.16-51.77Q236.52-51.77 236.84-51.48L236.84-51.48L236.84-51.48Q237.17-51.19 237.17-50.76L237.17-50.76L237.17-44.93L237.17-44.93Q237.17-44.57 236.84-44.24L236.84-44.24L236.84-44.24Q236.52-43.92 236.16-43.92L236.16-43.92L225.29-43.92L225.29-29.74L233.14-29.74L233.14-29.74Q233.50-29.74 233.82-29.45L233.82-29.45L233.82-29.45Q234.14-29.16 234.14-28.80L234.14-28.80L234.14-22.90L234.14-22.90Q234.14-22.54 233.82-22.21L233.82-22.21L233.82-22.21Q233.50-21.89 233.14-21.89L233.14-21.89L225.29-21.89L225.29-7.78L236.16-7.78L236.16-7.78Q236.52-7.78 236.84-7.49L236.84-7.49L236.84-7.49Q237.17-7.20 237.17-6.77L237.17-6.77L237.17-1.01L237.17-1.01Q237.17-0.58 236.84-0.29L236.84-0.29L236.84-0.29Q236.52 0 236.16 0L236.16 0L225.29 0L225.29 0.07L218.52 0.07L218.52 0.07Q218.09 0.07 217.80-0.25L217.80-0.25L217.80-0.25Q217.51-0.58 217.51-1.01L217.51-1.01L217.51-43.92L217.51-50.76L217.51-50.76Q217.51-51.77 218.52-51.77L218.52-51.77ZM262.66-9.58L262.66-9.58L262.66-9.58Q262.66-7.56 261.90-5.80L261.90-5.80L261.90-5.80Q261.14-4.03 259.85-2.74L259.85-2.74L259.85-2.74Q258.55-1.44 256.79-0.68L256.79-0.68L256.79-0.68Q255.02 0.07 253.01 0.07L253.01 0.07L251.78 0.07L251.78 0.07Q249.77 0.07 248.00-0.68L248.00-0.68L248.00-0.68Q246.24-1.44 244.94-2.74L244.94-2.74L244.94-2.74Q243.65-4.03 242.89-5.80L242.89-5.80L242.89-5.80Q242.14-7.56 242.14-9.58L242.14-9.58L242.14-15.55L242.14-15.55Q242.14-16.56 243.14-16.56L243.14-16.56L248.90-16.56L248.90-16.56Q249.91-16.56 249.91-15.55L249.91-15.55L249.91-9.58L249.91-9.58Q249.91-8.78 250.45-8.28L250.45-8.28L250.45-8.28Q250.99-7.78 251.78-7.78L251.78-7.78L253.01-7.78L253.01-7.78Q253.80-7.78 254.34-8.28L254.34-8.28L254.34-8.28Q254.88-8.78 254.88-9.58L254.88-9.58L254.88-17.71L254.88-17.71Q254.88-18.36 254.59-18.94L254.59-18.94L254.59-18.94Q254.30-19.51 253.87-19.94L253.87-19.94L244.15-28.66L244.15-28.66Q242.14-30.46 242.14-33.19L242.14-33.19L242.14-41.90L242.14-41.90Q242.14-43.92 242.89-45.68L242.89-45.68L242.89-45.68Q243.65-47.45 244.94-48.78L244.94-48.78L244.94-48.78Q246.24-50.11 248.00-50.87L248.00-50.87L248.00-50.87Q249.77-51.62 251.78-51.62L251.78-51.62L253.01-51.62L253.01-51.62Q255.02-51.62 256.79-50.87L256.79-50.87L256.79-50.87Q258.55-50.11 259.85-48.78L259.85-48.78L259.85-48.78Q261.14-47.45 261.90-45.68L261.90-45.68L261.90-45.68Q262.66-43.92 262.66-41.90L262.66-41.90L262.66-36.00L262.66-36.00Q262.66-35.64 262.37-35.32L262.37-35.32L262.37-35.32Q262.08-34.99 261.65-34.99L261.65-34.99L255.89-34.99L255.89-34.99Q255.46-34.99 255.17-35.32L255.17-35.32L255.17-35.32Q254.88-35.64 254.88-36.00L254.88-36.00L254.88-41.90L254.88-41.90Q254.88-42.70 254.34-43.24L254.34-43.24L254.34-43.24Q253.80-43.78 253.01-43.78L253.01-43.78L251.78-43.78L251.78-43.78Q250.99-43.78 250.45-43.24L250.45-43.24L250.45-43.24Q249.91-42.70 249.91-41.90L249.91-41.90L249.91-34.42L249.91-34.42Q249.91-33.05 250.99-32.11L250.99-32.11L260.64-23.40L260.64-23.40Q262.66-21.60 262.66-18.86L262.66-18.86L262.66-9.58ZM274.18-51.62L274.18-51.62L274.18-51.62Q274.61-51.62 274.90-51.30L274.90-51.30L274.90-51.30Q275.18-50.98 275.18-50.62L275.18-50.62L275.18-9.58L275.18-9.58Q275.18-8.78 275.72-8.28L275.72-8.28L275.72-8.28Q276.26-7.78 277.06-7.78L277.06-7.78L278.28-7.78L278.28-7.78Q279.07-7.78 279.61-8.28L279.61-8.28L279.61-8.28Q280.15-8.78 280.15-9.58L280.15-9.58L280.15-50.62L280.15-50.62Q280.15-50.98 280.44-51.30L280.44-51.30L280.44-51.30Q280.73-51.62 281.16-51.62L281.16-51.62L286.92-51.62L286.92-51.62Q287.35-51.62 287.64-51.30L287.64-51.30L287.64-51.30Q287.93-50.98 287.93-50.62L287.93-50.62L287.93-9.58L287.93-9.58Q287.93-7.56 287.17-5.80L287.17-5.80L287.17-5.80Q286.42-4.03 285.12-2.74L285.12-2.74L285.12-2.74Q283.82-1.44 282.06-0.68L282.06-0.68L282.06-0.68Q280.30 0.07 278.28 0.07L278.28 0.07L277.06 0.07L277.06 0.07Q275.04 0.07 273.28-0.68L273.28-0.68L273.28-0.68Q271.51-1.44 270.18-2.74L270.18-2.74L270.18-2.74Q268.85-4.03 268.09-5.80L268.09-5.80L268.09-5.80Q267.34-7.56 267.34-9.58L267.34-9.58L267.34-50.62L267.34-50.62Q267.34-50.98 267.66-51.30L267.66-51.30L267.66-51.30Q267.98-51.62 268.34-51.62L268.34-51.62L274.18-51.62ZM312.98-1.08L312.98-1.08L312.98-1.08Q312.98-0.58 312.66-0.29L312.66-0.29L312.66-0.29Q312.34 0 311.90 0L311.90 0L294.48 0L294.48 0Q294.12 0 293.80-0.29L293.80-0.29L293.80-0.29Q293.47-0.58 293.47-1.01L293.47-1.01L293.47-50.76L293.47-50.76Q293.47-51.19 293.80-51.44L293.80-51.44L293.80-51.44Q294.12-51.70 294.48-51.70L294.48-51.70L300.38-51.70L300.38-51.70Q301.32-51.70 301.32-50.76L301.32-50.76L301.32-7.78L311.90-7.78L311.90-7.78Q312.34-7.78 312.66-7.49L312.66-7.49L312.66-7.49Q312.98-7.20 312.98-6.77L312.98-6.77L312.98-1.08ZM325.94-0.94L325.94-0.94L325.94-0.94Q325.94 0 325.01 0L325.01 0L319.03 0L319.03 0Q318.17 0 318.17-0.94L318.17-0.94L318.17-43.99L311.83-43.99L311.83-43.99Q310.90-43.99 310.90-45.00L310.90-45.00L310.90-50.83L310.90-50.83Q310.90-51.19 311.18-51.52L311.18-51.52L311.18-51.52Q311.47-51.84 311.83-51.84L311.83-51.84L332.21-51.84L332.21-51.84Q332.64-51.84 332.93-51.52L332.93-51.52L332.93-51.52Q333.22-51.19 333.22-50.83L333.22-50.83L333.22-45.00L333.22-45.00Q333.22-43.99 332.21-43.99L332.21-43.99L325.94-43.99L325.94-0.94Z"
                    ></path>
                </g>
                <g
                    id=""
                    class="logo--name svgSloganText_1 sloganBox"
                    transform="scale(1) translate(198.4,254.4)"
                    fill="url(#sloganGradient274383379)"
                >
                    <path d=""></path>
                </g>
            </g>
        </g>
    </g>
</svg>
