<?xml version="1.0" encoding="UTF-8"?>
<!DOCTYPE svg PUBLIC "-//W3C//DTD SVG 1.1//EN" "http://www.w3.org/Graphics/SVG/1.1/DTD/svg11.dtd">
<!-- Creator: CorelDRAW X6 -->
<svg xmlns="http://www.w3.org/2000/svg" xml:space="preserve" width="4in" height="4in" version="1.1" style="shape-rendering:geometricPrecision; text-rendering:geometricPrecision; image-rendering:optimizeQuality; fill-rule:evenodd; clip-rule:evenodd"
viewBox="0 0 4000 4000"
 xmlns:xlink="http://www.w3.org/1999/xlink">
 <defs>
  <style type="text/css">
   <![CDATA[
    .fil13 {fill:#727272;fill-rule:nonzero}
    .fil1 {fill:#F9FCFE;fill-rule:nonzero}
    .fil0 {fill:#FEFEFE;fill-rule:nonzero}
    .fil17 {fill:url(#id1)}
    .fil16 {fill:url(#id2)}
    .fil15 {fill:url(#id3)}
    .fil14 {fill:url(#id4)}
    .fil4 {fill:url(#id5)}
    .fil6 {fill:url(#id6)}
    .fil8 {fill:url(#id7)}
    .fil3 {fill:url(#id8)}
    .fil7 {fill:url(#id9)}
    .fil9 {fill:url(#id10)}
    .fil10 {fill:url(#id11)}
    .fil11 {fill:url(#id12)}
    .fil2 {fill:url(#id13)}
    .fil5 {fill:url(#id14)}
    .fil12 {fill:url(#id15)}
   ]]>
  </style>
   <clipPath id="id0" style="clip-rule:nonzero">
    <path d="M2113 3315c-77,0 -153,0 -229,0 -6,0 -12,0 -17,-1 -18,0 -35,0 -53,0 -6,0 -13,0 -19,0 -11,0 -22,0 -33,-1 -9,0 -18,0 -28,0 -5,0 -9,0 -14,0 -7,0 -15,0 -22,-1 -7,0 -14,0 -21,0 -3,0 -7,0 -11,0 -7,0 -14,0 -21,-1 -6,0 -11,0 -16,0 -3,0 -7,0 -10,0 -6,0 -13,0 -18,-1 -4,0 -8,0 -12,0 -3,0 -6,0 -9,0 -5,0 -11,0 -15,-1 -4,0 -8,0 -12,0 -2,0 -5,0 -7,0 -5,0 -10,0 -14,-1 -4,0 -8,0 -12,0 -2,0 -4,0 -6,0 -5,0 -10,0 -14,-1 -3,0 -6,0 -8,0 -2,0 -5,0 -7,0 -5,0 -9,0 -13,-1 -19,0 -39,0 -56,-2 26,0 51,1 77,2 47,1 95,2 143,3 27,0 55,1 82,1 2,0 5,0 7,0 5,0 10,0 14,1 6,0 12,0 18,0 10,0 21,0 31,1 9,0 19,0 28,0 31,0 62,0 93,0 77,0 153,0 230,0 14,0 27,0 41,0 1,0 1,0 2,0 11,-1 22,-1 33,-1 7,0 14,0 21,0 9,0 17,0 25,0 1,0 1,0 2,0 8,-1 16,-1 25,-1 5,0 9,0 14,0 5,0 10,0 16,0 0,0 1,0 1,0 6,-1 13,-1 19,-1 4,0 8,0 11,0 6,0 11,0 16,0 6,-1 13,-1 21,-1 4,0 8,0 12,0l0 1c-6,1 -12,1 -18,1 -3,0 -7,0 -10,0 -5,0 -10,0 -16,0 -6,1 -14,1 -21,1 -3,0 -7,0 -11,0 -7,0 -14,0 -20,0 -7,1 -15,1 -23,1 -5,0 -9,0 -14,0 -10,0 -19,0 -29,0 -10,1 -21,1 -33,0 -6,0 -13,0 -19,0 -15,0 -30,0 -45,0 -3,0 -5,0 -8,0 -3,1 -6,1 -9,1 -2,0 -5,0 -7,0zm-292 -3c-69,0 -137,-1 -205,-2 -109,-2 -216,-4 -321,-9 -7,0 -15,0 -21,-1 28,0 54,2 81,3 75,3 152,4 229,6 74,1 147,2 222,3 119,1 238,1 356,0 70,0 139,-1 210,-2 115,-2 230,-5 343,-10 9,0 18,-2 28,-1 -57,3 -115,5 -173,7 -68,2 -136,3 -204,5 -38,1 -76,1 -114,1 -75,1 -149,1 -224,1 -69,0 -138,0 -207,0zm587 -1c-1,0 -3,0 -4,0 6,-1 12,-1 18,-1 3,0 7,0 10,0l0 1c-4,1 -8,1 -12,1 -4,0 -8,0 -12,-1zm37 -1c-2,0 -3,0 -4,0 5,-1 11,-1 18,-1 3,0 6,0 10,0l0 1c-4,0 -8,1 -12,1 -4,0 -8,0 -12,-1zm32 -1c7,0 14,0 20,-1 -2,1 -5,2 -9,2 -3,0 -7,0 -11,-1zm28 -1c7,0 14,0 21,0 -3,1 -7,1 -10,1 -3,0 -7,0 -10,-1zm-659 1c-6,0 -13,0 -18,-1 -55,0 -111,-1 -166,-1 -2,0 -4,0 -6,0 -5,0 -10,0 -14,-1l0 -1c-21,-1 -42,-1 -63,-1 -27,-1 -55,-1 -82,-2l0 -1c2,0 5,0 8,-1 -42,-1 -83,-2 -123,-4 -80,-3 -158,-6 -230,-13 -14,-1 -29,-2 -39,-5 -1,0 0,0 1,-1 -1,-1 -6,-2 -10,-2 -67,-9 -106,-21 -102,-36 2,-8 18,-16 52,-23 18,-5 43,-9 73,-11 0,0 0,0 1,0 -1,0 -1,-1 -1,-1 -16,2 -31,4 -45,6 -7,1 -13,2 -23,3 -2,0 -4,0 -6,0 -1,0 -1,-1 -1,-1 -6,1 -11,2 -16,3 -3,1 -7,2 -14,1l0 -1c15,-5 39,-8 65,-11 51,-7 110,-10 169,-14 7,-1 15,-1 25,-1 4,0 8,-1 12,-1 -2,-1 -5,-1 -8,-1 -13,0 -23,2 -37,1 11,-1 23,-2 37,-2 58,-2 118,-5 177,-6 4,-1 9,-1 13,-1 2,0 5,0 7,0 3,0 6,0 8,0 4,-1 9,-1 14,-1 2,0 4,0 6,0 2,0 5,0 8,0 5,-1 11,-1 17,-1 2,0 5,0 7,0 3,0 6,0 8,0 5,-1 10,-1 16,-1 3,0 6,0 9,0 2,0 5,0 8,0 6,-1 14,-1 21,-1 3,0 7,0 11,0 3,0 6,0 8,0 7,-1 16,-1 24,-1 4,0 9,0 13,0 10,0 19,0 28,-1 10,0 19,0 29,0 10,0 19,0 28,-1 15,0 30,0 45,0 3,0 5,0 8,0 5,-1 10,-1 16,-1 3,0 6,0 8,0 4,0 9,0 13,0 41,0 83,0 125,0 3,0 6,0 9,0 22,-1 45,-1 69,0 41,0 81,0 122,0 18,0 37,0 55,1 15,0 30,0 45,0 9,1 18,1 28,1 10,0 19,0 29,0 6,1 13,1 20,1 3,0 5,0 8,0 4,0 9,0 13,0 8,0 17,0 24,1 2,0 5,0 8,0 3,0 7,0 11,0 7,0 15,0 21,1 3,0 6,0 8,0 3,0 6,0 9,0 5,0 11,0 16,1 2,0 5,0 8,0 2,0 5,0 7,0 6,0 12,0 17,1 3,0 5,0 8,0 2,0 4,0 6,0 5,0 10,0 14,1 3,0 6,0 9,0 2,0 5,0 7,0 5,0 9,0 13,1 58,2 116,3 173,6 42,2 83,4 121,7 -2,0 -5,0 -8,0 2,1 3,1 4,2 -6,-1 -11,-1 -17,-2 -1,0 -3,0 -5,0 -2,0 -3,0 -5,0 -1,0 -1,0 -2,0 -3,0 -7,0 -10,0 -3,0 -6,0 -9,0 -17,-1 -33,-1 -47,-3 -2,0 -5,-1 -7,-1 -3,0 -7,0 -10,0 -3,0 -7,0 -10,0 -17,0 -33,-1 -49,-2 -5,-1 -11,-1 -17,-1 -13,0 -26,-1 -39,-1 -6,0 -11,0 -17,0 -2,0 -3,0 -6,0 -6,0 -14,0 -21,0 -2,0 -3,0 -5,0 -7,0 -14,0 -20,0 -2,0 -3,0 -5,0 -7,0 -15,0 -23,0 -2,0 -3,0 -5,0 -8,0 -16,0 -23,0 -2,0 -3,0 -5,0 -9,0 -18,0 -27,0 -2,0 -3,0 -5,0 -10,0 -21,0 -31,0 -2,0 -4,0 -6,0 -6,0 -13,0 -19,0 -6,0 -12,0 -18,0 -2,0 -5,0 -7,0 -171,-3 -343,-2 -515,-2 -49,0 -99,0 -148,1 -7,0 -13,0 -20,0 -5,0 -10,0 -14,0 -7,0 -14,0 -21,0 -1,0 -3,0 -5,0 15,0 29,0 43,0 23,0 47,0 70,0 60,0 121,-2 181,-1 8,0 17,0 23,1 33,0 66,0 98,0 31,0 61,-1 91,0 19,0 38,0 57,1 7,1 14,1 21,1 67,0 133,1 199,3 14,0 28,0 42,1 33,1 65,1 97,3 -4,0 -9,0 -12,1 48,2 97,3 145,5 79,4 155,8 218,17 56,8 88,19 93,30l0 7c-4,8 -22,16 -57,23 -56,11 -132,17 -214,22 -33,2 -65,3 -99,4 -5,0 -9,0 -13,0 -49,2 -98,4 -149,4 -18,1 -36,2 -55,2 -7,0 -14,0 -21,1 -3,0 -5,1 -8,1 -14,1 -27,1 -42,1 -5,0 -9,0 -14,0 -31,0 -62,2 -93,1 -7,0 -14,0 -21,0 -7,0 -13,1 -20,1 -4,0 -8,1 -12,1 75,0 150,-1 225,-2 31,-1 62,-2 93,-1 17,-1 35,-1 53,-1 33,-2 69,-2 103,-4 75,-3 149,-7 217,-13 2,0 5,0 7,0 -9,3 -26,3 -39,5 -53,5 -109,7 -167,10 -37,1 -75,2 -113,4 -20,0 -39,2 -61,1 -37,1 -75,2 -113,2 -73,1 -145,2 -218,2 -6,1 -13,1 -19,1 -51,0 -102,0 -153,0 -51,0 -102,0 -153,0zm-223 -15l0 0c-1,0 -1,0 -1,0 1,0 1,0 1,0zm-73 -1c1,0 1,0 1,0 -1,0 -1,0 -1,0 1,0 1,0 1,0zm423 -1c-1,0 -1,0 -1,0 0,0 0,0 1,0zm-510 -1c1,0 1,0 2,0 0,0 -1,0 -1,0 0,0 -1,0 -1,0zm-124 -8c1,0 1,0 1,0 0,0 0,0 0,0 -1,0 -1,0 -1,0zm1376 -3c0,0 1,0 1,0 -1,0 -1,0 -1,0 0,0 -1,0 -1,0zm-5 -7c0,0 0,0 1,0 -1,0 -1,0 -1,0 0,0 0,0 0,0zm-1436 -1c1,0 1,0 1,0 0,0 0,0 0,0 0,0 -1,0 -1,0zm1602 -1c0,0 0,0 0,0 0,0 0,0 0,0zm-165 -4l-1 0c1,0 1,0 1,0zm-29 -1c0,0 0,0 0,0 0,0 0,0 0,0 0,0 0,0 0,0zm-1237 0c0,0 0,0 0,0 -1,0 -1,0 -1,0 0,0 1,0 1,0zm-57 0c0,0 0,0 0,0 0,0 -1,0 -1,0 1,0 1,0 1,0zm-81 0c0,0 0,0 1,0 -1,0 -1,0 -1,0 0,0 1,0 1,0zm107 -2c1,0 1,0 2,0 -1,0 -1,0 -2,0 0,0 0,0 0,0zm-120 -8c0,0 1,0 1,0l0 0c0,0 -1,0 -1,0zm1682 -8c1,0 1,0 1,0 0,0 0,0 -1,0l0 0zm-1960 -4l-1 0c0,0 0,0 0,0 0,0 0,0 1,0zm226 -17c1,0 1,0 2,0 -1,0 -1,0 -1,0 -1,0 -1,0 -1,0zm1376 0c0,0 0,0 0,0 -1,0 -1,0 -1,0 1,0 1,0 1,0zm152 -4l0 0c0,0 0,0 0,0 0,0 0,0 0,0zm73 -2l0 0 0 0c0,0 0,0 0,0zm-88 -6l0 0c0,0 -1,0 -1,0 0,0 1,0 1,0zm-5 0c0,0 1,0 1,0 0,0 0,0 0,0 0,0 -1,0 -1,0zm-931 -1c0,0 0,0 0,0 0,0 0,0 0,0zm0 -1l0 0c0,0 0,0 0,0 0,0 0,0 0,0zm-28 -1c-1,0 -1,0 -1,0 1,0 1,0 1,0zm851 -9l0 0 0 0zm-532 -8c0,0 0,0 0,0 0,0 0,0 0,0 0,0 0,0 0,0zm-564 -3c0,0 0,0 -1,0 1,0 1,0 1,0zm-150 115l0 0zm-6 0c-6,0 -12,0 -18,-1 9,-1 18,-2 24,1 -2,0 -4,0 -6,0zm-115 -8l0 0zm-73 -4c25,1 50,2 73,4 -26,-1 -50,-2 -73,-4zm1601 -1c-9,2 -21,2 -32,2 9,-1 20,-2 32,-2zm-1601 1l0 0zm-20 -1c8,0 15,0 20,1 -8,0 -15,0 -20,-1zm1657 -2c-10,1 -22,3 -36,3 11,-1 22,-2 36,-3zm-1657 2l0 0zm-65 -5c23,1 45,3 65,5 -24,-1 -46,-3 -65,-5zm1790 1c-5,1 -14,2 -24,2 7,-1 15,-2 24,-2zm-16 -3c-6,2 -17,2 -28,3 6,-2 17,-2 28,-3zm-1774 1l0 0zm-53 -6c19,2 37,4 53,6 -21,-1 -39,-3 -53,-6zm1856 1c-4,1 -8,2 -17,2 4,-1 8,-2 17,-2zm52 -2c-5,1 -10,3 -20,3 5,-1 10,-2 20,-3zm-28 -1c-6,1 -12,3 -24,3 6,-1 12,-3 24,-3zm-1880 2l0 0zm-44 -7c16,2 31,5 44,7 -19,-2 -34,-4 -44,-7zm1976 2c-1,2 -9,2 -17,3 1,-2 9,-2 17,-3zm-49 -5c-7,3 -19,5 -36,6 10,-2 22,-4 36,-6zm41 -11c-1,2 -3,3 -13,4 2,-2 6,-3 13,-4zm4 -33l0 0zm-21 -7c13,2 18,4 21,7 -10,-2 -16,-4 -21,-7zm-20 -5l0 0zm-16 -3c7,1 15,2 16,3 -7,-1 -15,-2 -16,-3zm16 -1l0 0zm-12 -2c7,0 12,1 12,2 -5,-1 -9,-1 -12,-2zm-12 2l0 0zm-21 -3c10,0 15,1 21,3 -10,0 -15,-2 -21,-3zm-1810 -7c-9,2 -19,3 -33,4 8,-2 19,-3 33,-4zm48 -5c-14,2 -30,4 -48,5 13,-2 30,-4 48,-5zm77 -5c-22,2 -45,4 -69,5 21,-2 43,-4 69,-5zm1593 -1l0 0zm-123 -6c-78,-3 -157,-5 -236,-7 -83,-2 -167,-3 -251,-3 -71,-1 -142,0 -212,0 -47,0 -95,0 -142,0 -10,1 -21,1 -32,1 -5,0 -11,0 -17,0 -16,0 -32,0 -49,0 -6,1 -12,1 -18,1 -3,0 -6,0 -10,0 -11,0 -22,0 -32,0 -5,1 -10,1 -16,1 -3,0 -6,0 -9,0 -9,0 -19,0 -28,0 -4,1 -9,1 -14,1 -2,0 -4,0 -6,0 -6,0 -13,0 -20,0 -3,1 -9,1 -13,1 -2,0 -5,0 -7,0 -6,0 -11,0 -16,0 -4,1 -9,1 -14,1 -2,0 -4,0 -6,0 -4,0 -8,0 -12,0 -3,1 -9,1 -13,1 -2,0 -5,0 -7,0 -61,1 -122,3 -182,6 -6,0 -13,1 -19,1 8,-3 24,-2 37,-3 72,-2 144,-4 217,-6 63,-1 126,-2 189,-3 117,-1 234,-1 352,-1 75,0 150,1 226,2 111,2 222,4 332,8 46,2 91,4 135,6 6,0 13,1 17,2 -41,-2 -82,-4 -123,-6zm-117 4c-2,0 -3,0 -4,0 -3,0 -7,0 -10,-1 2,0 5,0 6,0 5,0 10,0 14,1 -2,0 -5,0 -6,0l0 0z"/>
   </clipPath>
  <linearGradient id="id1" gradientUnits="userSpaceOnUse" x1="1535.4" y1="1482.3" x2="1758.52" y2="1482.3">
   <stop offset="0" style="stop-color:#307ABD"/>
   <stop offset="1" style="stop-color:#22A99F"/>
  </linearGradient>
  <linearGradient id="id2" gradientUnits="userSpaceOnUse" x1="1893.76" y1="2027.75" x2="2478.22" y2="2027.75">
   <stop offset="0" style="stop-color:#36ACE2"/>
   <stop offset="1" style="stop-color:#8DC74A"/>
  </linearGradient>
  <linearGradient id="id3" gradientUnits="userSpaceOnUse" x1="1665.22" y1="1901.13" x2="2249.67" y2="1901.13">
   <stop offset="0" style="stop-color:#F16E91"/>
   <stop offset="1" style="stop-color:#6D4297"/>
  </linearGradient>
  <linearGradient id="id4" gradientUnits="userSpaceOnUse" x1="1506.76" y1="1558.81" x2="2166.25" y2="1558.81">
   <stop offset="0" style="stop-color:#F8ED3D"/>
   <stop offset="0.509804" style="stop-color:#F79534"/>
   <stop offset="1" style="stop-color:#F8ED3D"/>
  </linearGradient>
  <linearGradient id="id5" gradientUnits="userSpaceOnUse" xlink:href="#id3" x1="1321.94" y1="2523.67" x2="1513.84" y2="2534.19">
  </linearGradient>
  <linearGradient id="id6" gradientUnits="userSpaceOnUse" xlink:href="#id3" x1="1699.98" y1="2523.2" x2="1899.52" y2="2534.14">
  </linearGradient>
  <linearGradient id="id7" gradientUnits="userSpaceOnUse" xlink:href="#id3" x1="2086.6" y1="2523.83" x2="2263.49" y2="2533.52">
  </linearGradient>
  <linearGradient id="id8" gradientUnits="userSpaceOnUse" xlink:href="#id3" x1="1111.47" y1="2523.8" x2="1298.85" y2="2534.06">
  </linearGradient>
  <linearGradient id="id9" gradientUnits="userSpaceOnUse" xlink:href="#id3" x1="1915.5" y1="2524.49" x2="2068.29" y2="2532.86">
  </linearGradient>
  <linearGradient id="id10" gradientUnits="userSpaceOnUse" xlink:href="#id3" x1="2330.4" y1="2524.49" x2="2483.2" y2="2532.86">
  </linearGradient>
  <linearGradient id="id11" gradientUnits="userSpaceOnUse" xlink:href="#id3" x1="2493.79" y1="2523.2" x2="2693.34" y2="2534.14">
  </linearGradient>
  <linearGradient id="id12" gradientUnits="userSpaceOnUse" xlink:href="#id3" x1="2705.07" y1="2523.67" x2="2896.97" y2="2534.19">
  </linearGradient>
  <linearGradient id="id13" gradientUnits="userSpaceOnUse" xlink:href="#id3" x1="935.835" y1="2524.35" x2="1102.79" y2="2533.5">
  </linearGradient>
  <linearGradient id="id14" gradientUnits="userSpaceOnUse" xlink:href="#id3" x1="1544.07" y1="2523.75" x2="1719.24" y2="2533.35">
  </linearGradient>
  <linearGradient id="id15" gradientUnits="userSpaceOnUse" xlink:href="#id3" x1="2927.3" y1="2524.96" x2="3062.89" y2="2532.39">
  </linearGradient>
 </defs>
 <g id="Layer_x0020_1">
  <path class="fil14" d="M1612 1345c0,0 -43,-177 214,-242 257,-65 341,267 208,454 -132,188 -401,199 -440,523 0,0 -87,-241 178,-432 265,-192 150,-464 -24,-409l-38 21c0,0 -61,31 -98,85z"/>
  <path class="fil15" d="M1894 2283c0,0 -32,-168 41,-269 73,-101 211,-158 260,-221 49,-62 55,-206 22,-275 0,0 -24,113 -185,171 -215,77 -310,233 -328,319 -12,58 -38,210 191,274z"/>
  <path class="fil16" d="M2044 2283c0,0 -150,-172 67,-322 217,-150 271,-172 267,-259 0,0 101,97 93,274 -8,178 -105,296 -238,336 -133,40 -188,-30 -188,-30z"/>
  <path class="fil17" d="M1667 1361c-8,0 -14,-6 -14,-14 0,-8 6,-14 14,-14 8,0 14,6 14,14 0,8 -6,14 -14,14zm81 -122c-74,39 -114,72 -136,106 -30,47 -22,97 -11,168 18,121 -65,213 -65,213 204,-147 223,-272 198,-354 -25,-82 14,-132 14,-132z"/>

 </g>
</svg>
