<svg
    viewBox="0 0 300 90"
    preserveAspectRatio="xMidYMid meet"
    class="css-1y5supu"
    id="ccgecfed"
  

 xmlns="http://www.w3.org/2000/svg" xml:space="preserve" width="7in" height="2in" version="1.1" style="shape-rendering:geometricPrecision; text-rendering:geometricPrecision; image-rendering:optimizeQuality; fill-rule:evenodd; clip-rule:evenodd"

 xmlns:xlink="http://www.w3.org/1999/xlink"

>
    <defs id="SvgjsDefs1064"></defs>
    <g id="SvgjsG1065" featurekey="root" fill="#ffffff"></g>
    <g
        id="SvgjsG1066"
        featurekey="symbol1"
        fill="#282828"
        transform="matrix(0.7777778437108225,0,0,0.7777778437108225,6.111116715419914,6.099859966690061)"
    >
        <g transform="translate(0,-952.36216)">
            <path
                style=""
                d="M 50 19.398438 C 33.074986 19.398438 19.320342 33.11403 19.320312 50 C 19.320232 66.8859 33.074916 80.601562 50 80.601562 C 66.925095 80.601562 80.679767 66.8859 80.679688 50 C 80.679658 33.11403 66.925014 19.398438 50 19.398438 z M 38.15625 28.556641 L 39.103516 31.679688 L 42.832031 31.621094 L 39.853516 33.40625 L 41.072266 36.605469 L 38.283203 34.583984 L 35.308594 36.626953 L 36.5625 33.589844 L 33.507812 31.650391 L 37.072266 31.796875 L 38.15625 28.556641 z M 49.988281 28.556641 L 50.935547 31.679688 L 54.664062 31.621094 L 51.685547 33.40625 L 52.904297 36.605469 L 50.111328 34.583984 L 47.140625 36.626953 L 48.392578 33.589844 L 45.335938 31.650391 L 48.904297 31.796875 L 49.988281 28.556641 z M 61.820312 28.556641 L 62.767578 31.679688 L 66.494141 31.621094 L 63.517578 33.40625 L 64.732422 36.605469 L 61.943359 34.583984 L 58.96875 36.626953 L 60.224609 33.589844 L 57.167969 31.650391 L 60.732422 31.796875 L 61.820312 28.556641 z M 32.15625 38.814453 L 33.101562 41.939453 L 36.830078 41.875 L 33.851562 43.660156 L 35.066406 46.863281 L 32.279297 44.84375 L 29.304688 46.882812 L 30.560547 43.847656 L 27.503906 41.908203 L 31.066406 42.054688 L 32.15625 38.814453 z M 44.042969 38.814453 L 44.990234 41.939453 L 48.716797 41.875 L 45.740234 43.660156 L 46.958984 46.863281 L 44.169922 44.84375 L 41.195312 46.882812 L 42.447266 43.847656 L 39.394531 41.908203 L 42.958984 42.054688 L 44.042969 38.814453 z M 55.933594 38.814453 L 56.880859 41.939453 L 60.609375 41.875 L 57.630859 43.660156 L 58.845703 46.863281 L 56.056641 44.84375 L 53.082031 46.882812 L 54.339844 43.847656 L 51.283203 41.908203 L 54.845703 42.054688 L 55.933594 38.814453 z M 67.822266 38.814453 L 68.769531 41.939453 L 72.496094 41.875 L 69.517578 43.660156 L 70.736328 46.863281 L 67.949219 44.84375 L 64.974609 46.882812 L 66.226562 43.847656 L 63.173828 41.908203 L 66.738281 42.054688 L 67.822266 38.814453 z M 22.183594 49.998047 L 77.816406 49.998047 C 77.816406 49.998702 77.816406 49.999345 77.816406 50 C 77.816413 51.416067 77.7085 52.8074 77.503906 54.166016 L 22.496094 54.166016 C 22.2915 52.8074 22.183587 51.416067 22.183594 50 C 22.183594 49.999345 22.183594 49.998702 22.183594 49.998047 z M 23.460938 58.332031 L 76.539062 58.332031 C 76.08424 59.777183 75.51055 61.167911 74.835938 62.5 L 25.164062 62.5 C 24.48945 61.167911 23.91576 59.777183 23.460938 58.332031 z M 27.824219 66.667969 L 72.240234 66.667969 L 72.240234 66.671875 C 71.094721 68.18998 69.793808 69.583216 68.365234 70.835938 L 31.634766 70.835938 C 30.232321 69.606128 28.954262 68.239878 27.824219 66.753906 L 27.824219 66.667969 z "
                transform="translate(0,952.36216)"
                fill="#2d3649"
                fill-opacity="1"
                stroke="none"
            ></path>
            <path
                d="m 58.317403,957.3789 -8.853951,5.28503 -8.998275,-5.0438 -6.163443,8.26983 -10.239723,-1.21495 -2.527763,10.00342 -9.927472,2.7972 1.495,10.20506 -8.10178,6.38633 5.282151,8.85658 -5.0436308,8.9955 8.2697368,6.1662 -1.212154,10.2397 10.000511,2.5307 2.786448,9.8937 10.213135,-1.4614 -7e-5,0 0.003,0 1.213407,1.5398 5.136964,6.5197 8.781953,-5.3388 c 3.033757,1.7196 6.124448,3.3558 9.191307,5.0208 l 4.326687,-5.8112 1.746008,-2.3451 0.125564,0.016 3e-5,0 10.1377,1.1048 2.506998,-9.903 9.924716,-2.8001 -1.489418,-10.2051 8.098954,-6.3834 -5.284937,-8.8567 5.043651,-8.99834 -8.269767,-6.16334 1.21498,-10.24254 -10.000532,-2.52782 -2.79721,-9.92745 -10.205118,1.48945 -6.383412,-8.09896 z m -0.767765,4.16128 -3e-5,0 5.791803,7.35173 9.259324,-1.35275 2.54008,9.00805 9.070333,2.29601 -1.10022,9.29136 7.50562,5.5956 -4.578335,8.16302 4.797514,8.0409 -7.351635,5.7919 1.355497,9.2593 -9.008177,2.5401 -2.295928,9.0731 -4.262166,-0.5036 -1.905125,-0.2269 -3.12688,-0.3698 -0.547935,0.7365 -5.042057,6.7664 -2.422293,-1.3587 -5.740821,-3.2168 -5.159844,3.0778 -2.878157,1.7169 -5.791822,-7.3515 -0.909424,0.1344 -2.490421,0.364 -5.85949,0.8571 -2.54005,-9.0109 -9.073119,-2.296 1.103006,-9.2914 -7.5056701,-5.5927 4.5755891,-8.1659 -4.7919309,-8.04072 7.3460519,-5.79204 -1.35271,-9.25929 9.008177,-2.54014 2.295957,-9.07309 9.291355,1.1003 5.592788,-7.50286 8.163094,4.57547 8.038051,-4.79746 z"
                style="color:;font-style:normal;font-variant:normal;font-weight:normal;font-stretch:normal;font-size:medium;line-height:normal;font-family:sans-serif;text-indent:0;text-align:start;text-decoration:none;text-decoration-line:none;text-decoration-style:solid;text-decoration-color:;letter-spacing:normal;word-spacing:normal;text-transform:none;direction:ltr;block-progression:tb;writing-mode:lr-tb;baseline-shift:baseline;text-anchor:start;white-space:normal;clip-rule:nonzero;display:inline;overflow:visible;visibility:visible;opacity:1;isolation:auto;mix-blend-mode:normal;color-interpolation:sRGB;color-interpolation-filters:linearRGB;solid-color:;solid-opacity:1;fill:#ff0000;fill-opacity:1;fill-rule:evenodd;stroke:none;stroke-width:8;stroke-linecap:butt;stroke-linejoin:miter;stroke-miterlimit:4;stroke-dasharray:none;stroke-dashoffset:0;stroke-opacity:1;color-rendering:auto;image-rendering:auto;shape-rendering:auto;text-rendering:auto;enable-background:accumulate"
            ></path>
        </g>
    </g>
</svg>
